<svg width="24" height="24" viewBox="0 0 24 24" fill="none" xmlns="http://www.w3.org/2000/svg">
<path d="M20.497 15.278C21.514 17.568 20.938 19.954 19.064 21.216C18.29 21.738 17.472 21.999 16.633 21.999C15.785 21.999 14.917 21.733 14.05 21.202C13.538 20.888 13.084 20.482 12.645 20.09C12.505 19.965 12.365 19.84 12.223 19.719C12.1585 19.6621 12.1011 19.5976 12.052 19.527C11.93 19.635 11.813 19.741 11.699 19.845C11.267 20.237 10.858 20.607 10.413 20.923C8.77 22.09 7.137 22.303 5.557 21.558C4.56047 21.089 3.77351 20.2667 3.34859 19.2506C2.92367 18.2345 2.89103 17.0968 3.257 16.058C3.75 14.644 4.392 13.268 5.014 11.938L5.034 11.895C5.917 10.005 6.84 8.09801 7.732 6.25401L8.525 4.61301C8.865 3.90701 9.32 3.11501 10.12 2.58701C10.943 2.04401 11.903 1.87001 12.823 2.09701C13.76 2.33001 14.558 2.95701 15.071 3.86101C15.834 5.20701 16.511 6.62301 17.086 7.84501C18.25 10.3102 19.3871 12.788 20.497 15.278ZM14.62 5.97001L14.065 4.80501C13.653 3.93601 12.898 3.41301 12.045 3.40501C11.172 3.40901 10.395 3.91701 9.955 4.79901C9.823 5.06401 9.687 5.32701 9.551 5.58901C9.325 6.02801 9.091 6.48101 8.877 6.93901C7.377 10.163 5.994 13.157 4.65 16.091C4.254 16.954 4.24 17.863 4.607 18.718C4.957 19.532 5.581 20.14 6.364 20.429C6.688 20.549 7.024 20.608 7.363 20.608C7.846 20.608 8.334 20.488 8.795 20.248C9.38 19.944 9.892 19.51 10.388 19.091C10.604 18.908 10.82 18.725 11.041 18.554C11.62 18.106 11.301 17.595 11.177 17.396C10.605 16.481 10.013 15.534 9.553 14.554C9.109 13.606 9.015 12.651 9.275 11.717C9.688 10.235 11.227 9.38701 12.778 9.78701C14.234 10.161 15.119 11.66 14.836 13.273C14.642 14.38 14.176 15.451 13.326 16.748C13.271 16.83 13.206 16.916 13.14 17.003C12.9 17.32 12.629 17.68 12.689 18.067C12.753 18.477 13.115 18.772 13.434 19.032C13.505 19.09 13.576 19.148 13.64 19.204C14.445 19.915 15.359 20.575 16.591 20.592H16.617L16.642 20.589C16.72 20.579 16.798 20.57 16.877 20.562C17.067 20.542 17.266 20.522 17.466 20.465C17.8954 20.3427 18.2927 20.1279 18.6301 19.8356C18.9675 19.5433 19.2368 19.1806 19.419 18.773C19.789 17.943 19.775 17.007 19.381 16.139C17.834 12.729 16.201 9.29301 14.62 5.97001ZM13.458 13.29C13.641 12.383 13.512 11.83 13.028 11.44C12.717 11.192 12.386 11.067 12.04 11.067C11.784 11.067 11.52 11.135 11.247 11.271C10.702 11.545 10.467 12.019 10.51 12.766C10.586 14.079 11.257 15.149 12.014 16.249C12.647 15.359 13.235 14.395 13.458 13.289V13.29Z" fill="black"/>
</svg>
