<svg width="15" height="15" viewBox="0 0 15 15" fill="none" xmlns="http://www.w3.org/2000/svg">
<circle cx="7.5" cy="7.5" r="7.5" fill="#F0E7FF"/>
<g clip-path="url(#clip0_22_162)">
<path fill-rule="evenodd" clip-rule="evenodd" d="M10.2843 5.49071C10.3663 5.57275 10.4124 5.68401 10.4124 5.80002C10.4124 5.91603 10.3663 6.02729 10.2843 6.10933L7.00507 9.38854C6.96173 9.43189 6.91028 9.46627 6.85366 9.48973C6.79703 9.51319 6.73634 9.52526 6.67505 9.52526C6.61376 9.52526 6.55306 9.51319 6.49644 9.48973C6.43981 9.46627 6.38836 9.43189 6.34503 9.38854L4.71578 7.75958C4.67399 7.71923 4.64066 7.67095 4.61773 7.61757C4.5948 7.5642 4.58274 7.50679 4.58223 7.4487C4.58173 7.39061 4.5928 7.333 4.61479 7.27923C4.63679 7.22546 4.66928 7.17661 4.71036 7.13554C4.75143 7.09446 4.80028 7.06197 4.85405 7.03997C4.90782 7.01798 4.96543 7.00691 5.02352 7.00741C5.08161 7.00792 5.13902 7.01999 5.19239 7.04291C5.24577 7.06584 5.29404 7.09917 5.3344 7.14096L6.6749 8.48146L9.66536 5.49071C9.70599 5.45005 9.75423 5.4178 9.80733 5.3958C9.86043 5.37379 9.91734 5.36247 9.97482 5.36247C10.0323 5.36247 10.0892 5.37379 10.1423 5.3958C10.1954 5.4178 10.2436 5.45005 10.2843 5.49071Z" fill="#7E61CA"/>
</g>
<defs>
<clipPath id="clip0_22_162">
<rect width="7" height="7" fill="white" transform="translate(4 4)"/>
</clipPath>
</defs>
</svg>
