<svg width="15" height="15" viewBox="0 0 15 15" fill="none" xmlns="http://www.w3.org/2000/svg">
<path d="M0.46875 11.25H14.5312C14.6556 11.25 14.7748 11.2994 14.8627 11.3873C14.9506 11.4752 15 11.5944 15 11.7188C15 11.8431 14.9506 11.9623 14.8627 12.0502C14.7748 12.1381 14.6556 12.1875 14.5312 12.1875H0.46875C0.34443 12.1875 0.225201 12.1381 0.137294 12.0502C0.049386 11.9623 0 11.8431 0 11.7188C0 11.5944 0.049386 11.4752 0.137294 11.3873C0.225201 11.2994 0.34443 11.25 0.46875 11.25ZM2.36438 9.84375C2.47944 8.56114 3.07029 7.368 4.02068 6.49905C4.97108 5.6301 6.21224 5.14823 7.5 5.14823C8.78776 5.14823 10.0289 5.6301 10.9793 6.49905C11.9297 7.368 12.5206 8.56114 12.6356 9.84375H11.6934C11.5798 8.811 11.089 7.85651 10.3152 7.16318C9.54143 6.46985 8.53898 6.08645 7.5 6.08645C6.46102 6.08645 5.45857 6.46985 4.68476 7.16318C3.91095 7.85651 3.42021 8.811 3.30656 9.84375H2.36438ZM7.5 1.875C7.62432 1.875 7.74355 1.92439 7.83146 2.01229C7.91936 2.1002 7.96875 2.21943 7.96875 2.34375V3.75C7.96875 3.87432 7.91936 3.99355 7.83146 4.08146C7.74355 4.16936 7.62432 4.21875 7.5 4.21875C7.37568 4.21875 7.25645 4.16936 7.16854 4.08146C7.08064 3.99355 7.03125 3.87432 7.03125 3.75V2.34375C7.03125 2.21943 7.08064 2.1002 7.16854 2.01229C7.25645 1.92439 7.37568 1.875 7.5 1.875ZM13.4663 4.34625C13.5541 4.43415 13.6035 4.55336 13.6035 4.67766C13.6035 4.80195 13.5541 4.92116 13.4663 5.00906L12.4725 6.00281C12.4293 6.04758 12.3775 6.08329 12.3203 6.10786C12.2632 6.13243 12.2016 6.14536 12.1394 6.1459C12.0772 6.14644 12.0154 6.13458 11.9578 6.11101C11.9002 6.08744 11.8479 6.05263 11.8039 6.00862C11.7599 5.96461 11.7251 5.91227 11.7015 5.85467C11.6779 5.79706 11.6661 5.73533 11.6666 5.67309C11.6671 5.61085 11.6801 5.54934 11.7046 5.49215C11.7292 5.43496 11.7649 5.38324 11.8097 5.34L12.8034 4.34625C12.8913 4.25837 13.0105 4.20901 13.1348 4.20901C13.2591 4.20901 13.3783 4.25837 13.4663 4.34625ZM1.53375 4.34625C1.62165 4.25837 1.74086 4.20901 1.86516 4.20901C1.98945 4.20901 2.10866 4.25837 2.19656 4.34625L3.19031 5.34C3.23508 5.38324 3.27079 5.43496 3.29536 5.49215C3.31993 5.54934 3.33286 5.61085 3.3334 5.67309C3.33394 5.73533 3.32208 5.79706 3.29851 5.85467C3.27494 5.91227 3.24013 5.96461 3.19612 6.00862C3.15211 6.05263 3.09977 6.08744 3.04217 6.11101C2.98456 6.13458 2.92283 6.14644 2.86059 6.1459C2.79835 6.14536 2.73684 6.13243 2.67965 6.10786C2.62246 6.08329 2.57074 6.04758 2.5275 6.00281L1.53375 5.00906C1.44587 4.92116 1.39651 4.80195 1.39651 4.67766C1.39651 4.55336 1.44587 4.43415 1.53375 4.34625Z" fill="#9E9E9E"/>
</svg>
