<svg width="24" height="10" viewBox="0 0 24 10" fill="none" xmlns="http://www.w3.org/2000/svg">
<path d="M0 0.970001V5.928C0 7.795 1.302 9.029 3 9.029C3.826 9.029 4.562 8.713 5.094 8.159V8.895H6.27V0.970001H5.082V5.858C5.082 7.115 4.232 7.964 3.135 7.964C2.025 7.964 1.189 7.137 1.189 5.858V0.971002H0V0.970001ZM7.44 0.970001V8.895H8.57V8.17C9.091 8.702 9.827 9.03 10.63 9.03C11.0274 9.03371 11.4217 8.95855 11.7899 8.80889C12.1581 8.65924 12.4929 8.43805 12.7751 8.15812C13.0573 7.87819 13.2811 7.54509 13.4337 7.17808C13.5863 6.81108 13.6645 6.41746 13.664 6.02C13.6659 5.6216 13.5886 5.2268 13.4367 4.85848C13.2849 4.49016 13.0614 4.15566 12.7793 3.87436C12.4971 3.59307 12.162 3.37058 11.7932 3.2198C11.4244 3.06902 11.0294 2.99295 10.631 2.996C10.2493 2.99552 9.87135 3.07145 9.51944 3.21932C9.16754 3.3672 8.8488 3.58401 8.582 3.857V0.971002H7.439L7.44 0.970001ZM17.309 3.008C15.622 3.008 14.344 4.378 14.344 6.008C14.344 7.728 15.678 9.018 17.41 9.018C18.463 9.018 19.323 8.555 19.9 7.785L19.074 7.174C18.644 7.751 18.078 8.021 17.41 8.021C16.437 8.021 15.657 7.321 15.498 6.381H20.195V6.008C20.195 4.288 18.973 3.008 17.309 3.008ZM23.604 3.076C22.97 3.076 22.506 3.37 22.223 3.834V3.121H21.092V8.895H22.234V5.61C22.234 4.716 22.778 4.14 23.525 4.14H24V3.075H23.604V3.076ZM17.285 4.004C18.135 4.004 18.849 4.592 19.041 5.474H15.52C15.723 4.592 16.436 4.004 17.285 4.004ZM10.553 4.016C11.639 4.016 12.533 4.899 12.533 6.02C12.5351 6.54772 12.3279 7.05474 11.9567 7.42985C11.5855 7.80497 11.0807 8.01756 10.553 8.021C10.2905 8.02153 10.0304 7.97008 9.78783 7.86961C9.54527 7.76914 9.32499 7.62164 9.13971 7.43562C8.95444 7.2496 8.80782 7.02874 8.70832 6.78577C8.60883 6.54281 8.55842 6.28255 8.56 6.02C8.55815 5.75733 8.60833 5.49689 8.70763 5.2537C8.80694 5.01051 8.9534 4.78939 9.13859 4.60309C9.32377 4.41679 9.54401 4.269 9.7866 4.16823C10.0292 4.06747 10.2893 4.01573 10.552 4.016H10.553Z" fill="white"/>
</svg>
